<svg id="_x31__x2C_5" enable-background="new 0 0 24 24" height="512" viewBox="0 0 24 24" width="512" xmlns="http://www.w3.org/2000/svg"><path d="m12 23.5c-1.151 0-11.25-.076-11.25-2.7v-6.3h22.5v6.3c0 2.624-10.099 2.7-11.25 2.7z" fill="#002040" data-darkreader-inline-fill="" style="--darkreader-inline-fill:#001a33;"></path><path d="m12 17.5c-1.151 0-11.25-.076-11.25-2.7v-6.3h22.5v6.3c0 2.624-10.099 2.7-11.25 2.7z" fill="#002550" data-darkreader-inline-fill="" style="--darkreader-inline-fill:#001e40;"></path><path d="m12 11.55c-1.151 0-11.25-.076-11.25-2.7v-5.4h22.5v5.4c0 2.624-10.099 2.7-11.25 2.7z" fill="#003060" data-darkreader-inline-fill="" style="--darkreader-inline-fill:#00264d;"></path><path d="m12 5.25c-1.151 0-11.25-.063-11.25-2.25s10.099-2.25 11.25-2.25 11.25.063 11.25 2.25-10.099 2.25-11.25 2.25z" fill="#003570" data-darkreader-inline-fill="" style="--darkreader-inline-fill:#002a5a;"></path><circle cx="5" cy="14" r="1"></circle><circle cx="5" cy="8" r="1"></circle><circle cx="5" cy="20" r="1"></circle></svg>